<svg width="128" height="128" viewBox="0 0 128 128" fill="none" xmlns="http://www.w3.org/2000/svg">
<path fill-rule="evenodd" clip-rule="evenodd" d="M61.913 29.152C62.5668 27.5318 63.2526 25.8322 64 24C64.7382 25.7324 65.4195 27.3441 66.0698 28.8823C71.8761 42.6159 75.209 50.4994 94.4288 86.285C94.5949 86.5944 94.6554 86.6629 95.0482 87.5694C95.5014 88.4759 95.3881 88.2493 96.1813 89.7224C96.5212 90.4023 96.7479 90.7422 97.2225 91.47C99.325 95.3688 101.534 99.46 104 104C91.4937 96.78 81.76 92.2863 72.7013 90.5138C73.0025 89.1488 73.18 87.6788 73.2187 86.1488C73.42 78.025 69.5225 71.0938 64.5175 70.67C59.5113 70.2463 55.285 76.4925 55.0838 84.615L55.0737 85.015C55.0587 86.9213 55.2675 88.7563 55.66 90.445C46.5025 92.1675 36.675 96.6825 24 104C40.1312 75.015 48.0862 59.9388 53.16 49.3513C53.6338 48.3626 53.5751 48.5892 53.915 47.9093C54.1749 47.3897 54.255 47.2295 54.3125 46.92C57.4444 40.2266 59.4517 35.2519 61.913 29.152ZM63.9013 87.9252C67.2667 87.9252 69.995 85.1969 69.995 81.8314C69.995 78.4659 67.2667 75.7377 63.9013 75.7377C60.5358 75.7377 57.8075 78.4659 57.8075 81.8314C57.8075 85.1969 60.5358 87.9252 63.9013 87.9252Z" fill="url(#paint0_linear_316_10)"/>
<defs>
<linearGradient id="paint0_linear_316_10" x1="104" y1="24" x2="24" y2="104" gradientUnits="userSpaceOnUse">
<stop offset="0.00520833" stop-color="#EDFF24" stop-opacity="0.1"/>
<stop offset="0.520833" stop-color="#FF278F" stop-opacity="0.5"/>
<stop offset="0.947917" stop-color="#B924FF" stop-opacity="0.7"/>
</linearGradient>
</defs>
</svg>
